<?xml version="1.0" encoding="utf-8"?>
<!-- Generator: Adobe Illustrator 24.0.1, SVG Export Plug-In . SVG Version: 6.00 Build 0)  -->
<svg version="1.1" id="Layer_1" xmlns="http://www.w3.org/2000/svg" xmlns:xlink="http://www.w3.org/1999/xlink" x="0px" y="0px"
	 viewBox="0 0 512 97" style="enable-background:new 0 0 512 97;" xml:space="preserve">
<style type="text/css">
	.st0{fill:#007AC2;}
	.st1{fill:#E4002B;}
	.st2{fill:#FFD659;}
</style>
<g>
	<path d="M147.3,6.3l-23.7,85.3H140l13.6-48.3l8,48.3h16.1l23.6-85.3h-16.4l-13.4,48.1l-7.9-48.1H147.3z M222.7,6.3L207.4,18
		L187,91.6h16.4l7.1-25.5h20.7l-7.1,25.5h16.4l20.4-73.5l-8.6-11.8H222.7z M285.6,6.3l-15.4,11.8l-7.5,26.6l8.6,12.3h25.1l-5.1,18.4
		h-20.7l2.5-8.7h-16.5l-3.5,12.8l8.9,12.2h29.1l15.5-12l7.3-26.8l-8.7-12.2h-25l5-18.2h20.6l-2.5,8.9h16.5l3.7-13.2L315,6.3
		L285.6,6.3L285.6,6.3z M348.4,6.3l-15.5,11.8l-17.1,61.4l9,12.1h29.1l15.5-12.1l4.8-17.4h-16.4L354,75.3h-20.6l14.8-53h20.5
		l-3.6,13.4h16.4l4.9-17.6l-8.5-11.8L348.4,6.3L348.4,6.3z M411,6.3l-15.4,11.8l-20.3,73.5h16.4l7.1-25.5h20.7l-7.1,25.5h16.4
		L449.1,18l-8.6-11.7H411L411,6.3z M461.9,6.3l-23.7,85.3h16.4l7.1-25.5h13.4l3.1,25.5h16.1l-3.5-29.1l11.5-9.4l9.8-35l-8.6-11.8
		L461.9,6.3L461.9,6.3z M222.5,22.3h20.7l-7.6,27.6h-20.7L222.5,22.3L222.5,22.3z M410.9,22.3h20.7l-7.6,27.6h-20.7L410.9,22.3
		L410.9,22.3z M473.8,22.3h20.6l-7.7,27.6h-20.5L473.8,22.3z"/>
	<polygon class="st0" points="138.3,6.3 105.6,6.3 81.9,91.6 114.6,91.6 	"/>
	<path class="st1" d="M58.6,6.3L34.8,91.7h15.9L74.3,6.3L58.6,6.3L58.6,6.3z M80.8,6.3L57,91.7h15.9L96.5,6.3L80.8,6.3L80.8,6.3z"/>
	<path class="st2" d="M23.7,6.3L0,91.7h9.8L33.4,6.3L23.7,6.3L23.7,6.3z M39.8,6.3L16.2,91.7H26L49.6,6.3L39.8,6.3L39.8,6.3z"/>
</g>
</svg>
